<svg xmlns="http://www.w3.org/2000/svg" xmlns:xlink="http://www.w3.org/1999/xlink" width="350" zoomAndPan="magnify" viewBox="0 0 262.5 179.999997" height="240" preserveAspectRatio="xMidYMid meet" version="1.0"><defs><g/><clipPath id="408bdcb051"><path d="M 9 114 L 22 114 L 22 127 L 9 127 Z M 9 114 " clip-rule="nonzero"/></clipPath><clipPath id="b5a2f02e0f"><path d="M 8.558594 120.6875 L 15.195312 114.050781 L 21.835938 120.6875 L 15.195312 127.328125 Z M 8.558594 120.6875 " clip-rule="nonzero"/></clipPath><clipPath id="752abd404d"><path d="M 9.617188 119.628906 L 14.136719 115.109375 C 14.417969 114.828125 14.800781 114.667969 15.195312 114.667969 C 15.59375 114.667969 15.976562 114.828125 16.253906 115.109375 L 20.777344 119.628906 C 21.058594 119.910156 21.214844 120.289062 21.214844 120.6875 C 21.214844 121.085938 21.058594 121.464844 20.777344 121.746094 L 16.253906 126.269531 C 15.976562 126.550781 15.59375 126.707031 15.195312 126.707031 C 14.800781 126.707031 14.417969 126.550781 14.136719 126.269531 L 9.617188 121.746094 C 9.335938 121.464844 9.179688 121.085938 9.179688 120.6875 C 9.179688 120.289062 9.335938 119.910156 9.617188 119.628906 Z M 9.617188 119.628906 " clip-rule="nonzero"/></clipPath><clipPath id="1b54fd3c97"><path d="M 237 114 L 250 114 L 250 127 L 237 127 Z M 237 114 " clip-rule="nonzero"/></clipPath><clipPath id="74c655cdd7"><path d="M 237.128906 120.6875 L 243.765625 114.050781 L 250.40625 120.6875 L 243.765625 127.328125 Z M 237.128906 120.6875 " clip-rule="nonzero"/></clipPath><clipPath id="5db04355ca"><path d="M 238.1875 119.628906 L 242.707031 115.109375 C 242.988281 114.828125 243.371094 114.667969 243.765625 114.667969 C 244.164062 114.667969 244.542969 114.828125 244.824219 115.109375 L 249.347656 119.628906 C 249.628906 119.910156 249.785156 120.289062 249.785156 120.6875 C 249.785156 121.085938 249.628906 121.464844 249.347656 121.746094 L 244.824219 126.269531 C 244.542969 126.550781 244.164062 126.707031 243.765625 126.707031 C 243.371094 126.707031 242.988281 126.550781 242.707031 126.269531 L 238.1875 121.746094 C 237.90625 121.464844 237.75 121.085938 237.75 120.6875 C 237.75 120.289062 237.90625 119.910156 238.1875 119.628906 Z M 238.1875 119.628906 " clip-rule="nonzero"/></clipPath><clipPath id="91a7a73336"><path d="M 83.421875 55.324219 L 222.546875 55.324219 L 222.546875 132.320312 L 83.421875 132.320312 Z M 83.421875 55.324219 " clip-rule="nonzero"/></clipPath><clipPath id="6b85635c3f"><path d="M 92 58.132812 L 205.382812 58.132812 L 205.382812 136.144531 L 92 136.144531 Z M 92 58.132812 " clip-rule="nonzero"/></clipPath><clipPath id="af5de73eff"><path d="M 65 42.886719 L 191 42.886719 L 191 133 L 65 133 Z M 65 42.886719 " clip-rule="nonzero"/></clipPath></defs><g fill="#fff5e1" fill-opacity="1"><g transform="translate(26.470898, 94.770966)"><g><path d="M 2.21875 -5.09375 L -2.8125 -7.28125 L -14.21875 -6.296875 L -12.65625 -9.90625 L -5.078125 -10.296875 L -5.046875 -10.328125 L -10.015625 -15.96875 L -8.4375 -19.625 L -1.328125 -10.71875 L 3.703125 -8.53125 Z M 2.21875 -5.09375 "/></g></g></g><g fill="#fff5e1" fill-opacity="1"><g transform="translate(33.677128, 78.457357)"><g><path d="M 5.59375 -7.390625 C 4.632812 -5.953125 3.507812 -4.890625 2.21875 -4.203125 C 0.9375 -3.523438 -0.421875 -3.234375 -1.859375 -3.328125 C -3.296875 -3.421875 -4.707031 -3.929688 -6.09375 -4.859375 C -7.488281 -5.796875 -8.5 -6.90625 -9.125 -8.1875 C -9.757812 -9.476562 -10.007812 -10.847656 -9.875 -12.296875 C -9.738281 -13.753906 -9.191406 -15.203125 -8.234375 -16.640625 C -7.253906 -18.097656 -6.117188 -19.164062 -4.828125 -19.84375 C -3.535156 -20.53125 -2.175781 -20.820312 -0.75 -20.71875 C 0.675781 -20.625 2.085938 -20.109375 3.484375 -19.171875 C 4.867188 -18.242188 5.878906 -17.140625 6.515625 -15.859375 C 7.160156 -14.578125 7.410156 -13.207031 7.265625 -11.75 C 7.128906 -10.300781 6.570312 -8.847656 5.59375 -7.390625 Z M 2.9375 -9.171875 C 3.488281 -9.992188 3.789062 -10.828125 3.84375 -11.671875 C 3.90625 -12.515625 3.722656 -13.316406 3.296875 -14.078125 C 2.878906 -14.847656 2.25 -15.507812 1.40625 -16.0625 C 0.539062 -16.644531 -0.316406 -16.984375 -1.171875 -17.078125 C -2.035156 -17.171875 -2.847656 -17.03125 -3.609375 -16.65625 C -4.367188 -16.289062 -5.023438 -15.695312 -5.578125 -14.875 C -6.109375 -14.070312 -6.40625 -13.242188 -6.46875 -12.390625 C -6.53125 -11.535156 -6.351562 -10.726562 -5.9375 -9.96875 C -5.519531 -9.207031 -4.878906 -8.535156 -4.015625 -7.953125 C -3.171875 -7.398438 -2.316406 -7.070312 -1.453125 -6.96875 C -0.585938 -6.875 0.222656 -7.015625 0.984375 -7.390625 C 1.753906 -7.773438 2.40625 -8.367188 2.9375 -9.171875 Z M 2.9375 -9.171875 "/></g></g></g><g fill="#fff5e1" fill-opacity="1"><g transform="translate(46.00155, 60.765406)"><g><path d="M 6.015625 -5.34375 C 5.003906 -4.3125 3.941406 -3.609375 2.828125 -3.234375 C 1.722656 -2.867188 0.628906 -2.828125 -0.453125 -3.109375 C -1.546875 -3.390625 -2.570312 -4 -3.53125 -4.9375 L -10.359375 -11.640625 L -7.75 -14.296875 L -1 -7.671875 C -0.300781 -6.984375 0.476562 -6.613281 1.34375 -6.5625 C 2.21875 -6.519531 3.015625 -6.863281 3.734375 -7.59375 C 4.429688 -8.300781 4.757812 -9.082031 4.71875 -9.9375 C 4.675781 -10.800781 4.289062 -11.59375 3.5625 -12.3125 L -3.1875 -18.9375 L -0.578125 -21.609375 L 6.25 -14.90625 C 7.207031 -13.96875 7.835938 -12.957031 8.140625 -11.875 C 8.441406 -10.800781 8.414062 -9.695312 8.0625 -8.5625 C 7.707031 -7.4375 7.023438 -6.363281 6.015625 -5.34375 Z M 6.015625 -5.34375 "/></g></g></g><g fill="#fff5e1" fill-opacity="1"><g transform="translate(59.602582, 47.284493)"><g><path d="M 10.65625 -7.125 C 10.03125 -6.675781 9.382812 -6.472656 8.71875 -6.515625 C 8.050781 -6.566406 7.410156 -6.828125 6.796875 -7.296875 L 4.9375 -8.75 C 4.5625 -9.050781 4.160156 -9.238281 3.734375 -9.3125 C 3.304688 -9.382812 2.910156 -9.289062 2.546875 -9.03125 L 0.609375 -7.65625 L 4.015625 -2.875 L 0.984375 -0.703125 L -8.046875 -13.359375 L -1.765625 -17.84375 C -0.253906 -18.914062 1.179688 -19.410156 2.546875 -19.328125 C 3.910156 -19.253906 5.023438 -18.609375 5.890625 -17.390625 C 6.472656 -16.566406 6.722656 -15.660156 6.640625 -14.671875 C 6.554688 -13.691406 6.117188 -12.742188 5.328125 -11.828125 L 5.34375 -11.8125 C 5.769531 -11.914062 6.164062 -11.910156 6.53125 -11.796875 C 6.90625 -11.679688 7.269531 -11.476562 7.625 -11.1875 L 9.109375 -10 C 9.316406 -9.84375 9.519531 -9.738281 9.71875 -9.6875 C 9.914062 -9.644531 10.109375 -9.691406 10.296875 -9.828125 C 10.460938 -9.953125 10.585938 -10.113281 10.671875 -10.3125 C 10.765625 -10.519531 10.816406 -10.742188 10.828125 -10.984375 L 12.5 -10 C 12.394531 -9.46875 12.1875 -8.945312 11.875 -8.4375 C 11.570312 -7.925781 11.164062 -7.488281 10.65625 -7.125 Z M -0.875 -9.734375 L 1.984375 -11.765625 C 2.660156 -12.242188 3.082031 -12.785156 3.25 -13.390625 C 3.425781 -14.003906 3.316406 -14.582031 2.921875 -15.125 C 2.546875 -15.65625 2.039062 -15.941406 1.40625 -15.984375 C 0.769531 -16.023438 0.113281 -15.804688 -0.5625 -15.328125 L -3.421875 -13.296875 Z M -0.875 -9.734375 "/></g></g></g><g fill="#fff5e1" fill-opacity="1"><g transform="translate(75.688668, 36.488806)"><g/></g></g><g fill="#fff5e1" fill-opacity="1"><g transform="translate(82.8164, 32.510691)"><g><path d="M 1.125 -0.4375 L -4.515625 -14.921875 L 2.859375 -17.796875 C 4.472656 -18.421875 5.847656 -18.5625 6.984375 -18.21875 C 8.128906 -17.875 8.945312 -17.070312 9.4375 -15.8125 C 9.75 -15 9.796875 -14.242188 9.578125 -13.546875 C 9.367188 -12.859375 8.914062 -12.257812 8.21875 -11.75 L 8.21875 -11.734375 C 9.175781 -11.898438 10.003906 -11.789062 10.703125 -11.40625 C 11.410156 -11.019531 11.945312 -10.363281 12.3125 -9.4375 C 12.800781 -8.15625 12.734375 -6.984375 12.109375 -5.921875 C 11.484375 -4.867188 10.34375 -4.023438 8.6875 -3.390625 Z M 1.296875 -10.28125 L 4.65625 -11.578125 C 5.332031 -11.835938 5.796875 -12.191406 6.046875 -12.640625 C 6.304688 -13.085938 6.328125 -13.59375 6.109375 -14.15625 C 5.898438 -14.675781 5.550781 -15.015625 5.0625 -15.171875 C 4.570312 -15.328125 3.988281 -15.273438 3.3125 -15.015625 L -0.046875 -13.71875 Z M 3.59375 -4.375 L 7.046875 -5.71875 C 7.804688 -6.007812 8.328125 -6.390625 8.609375 -6.859375 C 8.890625 -7.335938 8.921875 -7.859375 8.703125 -8.421875 C 8.460938 -9.023438 8.078125 -9.410156 7.546875 -9.578125 C 7.015625 -9.753906 6.367188 -9.695312 5.609375 -9.40625 L 2.15625 -8.0625 Z M 3.59375 -4.375 "/></g></g></g><g fill="#fff5e1" fill-opacity="1"><g transform="translate(100.258888, 26.100076)"><g><path d="M 1.171875 -0.25 L -2.125 -15.4375 L 8.5625 -17.75 L 9.203125 -14.859375 L 2.03125 -13.3125 L 2.71875 -10.09375 L 9.046875 -11.46875 L 9.609375 -8.875 L 3.28125 -7.5 L 4.0625 -3.9375 L 11.453125 -5.53125 L 12.078125 -2.609375 Z M 1.171875 -0.25 "/></g></g></g><g fill="#fff5e1" fill-opacity="1"><g transform="translate(115.945348, 22.882724)"><g><path d="M 7.5625 0.109375 C 6.28125 0.179688 5.117188 0.046875 4.078125 -0.296875 C 3.035156 -0.640625 2.175781 -1.175781 1.5 -1.90625 C 0.820312 -2.644531 0.394531 -3.570312 0.21875 -4.6875 L 3.578125 -5.515625 C 3.742188 -4.597656 4.191406 -3.878906 4.921875 -3.359375 C 5.648438 -2.835938 6.53125 -2.609375 7.5625 -2.671875 C 8.5 -2.722656 9.222656 -2.957031 9.734375 -3.375 C 10.242188 -3.800781 10.484375 -4.3125 10.453125 -4.90625 C 10.421875 -5.375 10.191406 -5.742188 9.765625 -6.015625 C 9.347656 -6.296875 8.675781 -6.5 7.75 -6.625 L 5.546875 -6.921875 C 3.828125 -7.160156 2.546875 -7.613281 1.703125 -8.28125 C 0.867188 -8.945312 0.421875 -9.890625 0.359375 -11.109375 C 0.296875 -12.128906 0.503906 -13.023438 0.984375 -13.796875 C 1.472656 -14.578125 2.171875 -15.203125 3.078125 -15.671875 C 3.992188 -16.140625 5.050781 -16.410156 6.25 -16.484375 C 7.34375 -16.546875 8.335938 -16.414062 9.234375 -16.09375 C 10.140625 -15.769531 10.890625 -15.289062 11.484375 -14.65625 C 12.078125 -14.03125 12.472656 -13.269531 12.671875 -12.375 L 9.359375 -11.4375 C 9.210938 -12.1875 8.863281 -12.769531 8.3125 -13.1875 C 7.769531 -13.601562 7.117188 -13.789062 6.359375 -13.75 C 5.609375 -13.707031 5.015625 -13.488281 4.578125 -13.09375 C 4.148438 -12.695312 3.953125 -12.222656 3.984375 -11.671875 C 4.015625 -11.203125 4.222656 -10.84375 4.609375 -10.59375 C 4.992188 -10.34375 5.59375 -10.15625 6.40625 -10.03125 L 8.625 -9.75 C 10.425781 -9.5625 11.757812 -9.117188 12.625 -8.421875 C 13.488281 -7.734375 13.960938 -6.757812 14.046875 -5.5 C 14.109375 -4.4375 13.875 -3.492188 13.34375 -2.671875 C 12.8125 -1.847656 12.050781 -1.195312 11.0625 -0.71875 C 10.070312 -0.25 8.90625 0.0234375 7.5625 0.109375 Z M 7.5625 0.109375 "/></g></g></g><g fill="#fff5e1" fill-opacity="1"><g transform="translate(133.75168, 22.129149)"><g><path d="M 4.953125 0.5 L 6.1875 -11.796875 L 1.5625 -12.265625 L 1.875 -15.4375 L 14.84375 -14.140625 L 14.53125 -10.96875 L 9.890625 -11.421875 L 8.65625 0.875 Z M 4.953125 0.5 "/></g></g></g><g fill="#fff5e1" fill-opacity="1"><g transform="translate(150.642472, 24.273135)"><g/></g></g><g fill="#fff5e1" fill-opacity="1"><g transform="translate(158.60236, 25.446915)"><g><path d="M 4.234375 1.6875 L 5.859375 -14.390625 L 9.359375 -13 L 7.78125 -0.671875 L 7.828125 -0.65625 L 15.0625 -10.734375 L 19.390625 -9 L 17.765625 3.296875 L 17.796875 3.3125 L 25.078125 -6.75 L 28.59375 -5.34375 L 18.71875 7.453125 L 14.234375 5.671875 L 15.9375 -6.515625 L 15.90625 -6.53125 L 8.71875 3.46875 Z M 4.234375 1.6875 "/></g></g></g><g fill="#fff5e1" fill-opacity="1"><g transform="translate(183.949154, 36.365731)"><g><path d="M 0.09375 0.0625 L 13.4375 -9.703125 L 17.21875 -7.171875 L 13.203125 8.875 L 9.96875 6.6875 L 10.828125 3.578125 L 5.859375 0.25 L 3.328125 2.234375 Z M 7.90625 -1.5625 L 11.75 1.03125 L 13.6875 -5.96875 L 13.640625 -6 Z M 7.90625 -1.5625 "/></g></g></g><g fill="#fff5e1" fill-opacity="1"><g transform="translate(199.650068, 47.559857)"><g><path d="M 0.90625 0.796875 L 11.1875 -10.859375 L 13.984375 -8.390625 L 3.703125 3.265625 Z M 0.90625 0.796875 "/></g></g></g><g fill="#fff5e1" fill-opacity="1"><g transform="translate(206.774134, 53.802946)"><g><path d="M 3.3125 3.71875 L 12.546875 -4.5 L 9.453125 -7.96875 L 11.828125 -10.078125 L 20.484375 -0.34375 L 18.109375 1.765625 L 15.015625 -1.71875 L 5.78125 6.5 Z M 3.3125 3.71875 "/></g></g></g><g fill="#fff5e1" fill-opacity="1"><g transform="translate(217.787109, 66.59037)"><g><path d="M 0.65625 1.015625 L 13.6875 -7.46875 L 19.65625 1.6875 L 17.171875 3.3125 L 13.15625 -2.84375 L 10.390625 -1.046875 L 13.921875 4.375 L 11.703125 5.8125 L 8.171875 0.390625 L 5.109375 2.390625 L 9.234375 8.734375 L 6.734375 10.359375 Z M 0.65625 1.015625 "/></g></g></g><g fill="#fff5e1" fill-opacity="1"><g transform="translate(226.401437, 80.063341)"><g><path d="M 4.8125 11.875 C 4.5 11.164062 4.429688 10.488281 4.609375 9.84375 C 4.796875 9.207031 5.179688 8.644531 5.765625 8.15625 L 7.5625 6.609375 C 7.9375 6.296875 8.203125 5.9375 8.359375 5.53125 C 8.515625 5.125 8.503906 4.71875 8.328125 4.3125 L 7.375 2.140625 L 2 4.515625 L 0.484375 1.09375 L 14.703125 -5.1875 L 17.828125 1.875 C 18.578125 3.570312 18.769531 5.082031 18.40625 6.40625 C 18.050781 7.738281 17.191406 8.707031 15.828125 9.3125 C 14.910156 9.71875 13.976562 9.773438 13.03125 9.484375 C 12.082031 9.191406 11.238281 8.570312 10.5 7.625 L 10.484375 7.640625 C 10.503906 8.066406 10.421875 8.453125 10.234375 8.796875 C 10.046875 9.140625 9.773438 9.457031 9.421875 9.75 L 7.9375 10.953125 C 7.75 11.117188 7.609375 11.296875 7.515625 11.484375 C 7.429688 11.671875 7.4375 11.867188 7.53125 12.078125 C 7.613281 12.265625 7.742188 12.421875 7.921875 12.546875 C 8.109375 12.671875 8.320312 12.765625 8.5625 12.828125 L 7.25 14.265625 C 6.75 14.066406 6.28125 13.757812 5.84375 13.34375 C 5.40625 12.9375 5.0625 12.445312 4.8125 11.875 Z M 9.703125 1.109375 L 11.125 4.328125 C 11.445312 5.078125 11.890625 5.597656 12.453125 5.890625 C 13.023438 6.191406 13.613281 6.207031 14.21875 5.9375 C 14.820312 5.664062 15.203125 5.222656 15.359375 4.609375 C 15.523438 3.992188 15.445312 3.3125 15.125 2.5625 L 13.703125 -0.65625 Z M 9.703125 1.109375 "/></g></g></g><g clip-path="url(#408bdcb051)"><g clip-path="url(#b5a2f02e0f)"><g clip-path="url(#752abd404d)"><path fill="#fff5e1" d="M 8.558594 120.6875 L 15.195312 114.050781 L 21.835938 120.6875 L 15.195312 127.328125 Z M 8.558594 120.6875 " fill-opacity="1" fill-rule="nonzero"/></g></g></g><g clip-path="url(#1b54fd3c97)"><g clip-path="url(#74c655cdd7)"><g clip-path="url(#5db04355ca)"><path fill="#fff5e1" d="M 237.128906 120.6875 L 243.765625 114.050781 L 250.40625 120.6875 L 243.765625 127.328125 Z M 237.128906 120.6875 " fill-opacity="1" fill-rule="nonzero"/></g></g></g><g clip-path="url(#91a7a73336)"><path fill="#fbc268" d="M 87.191406 87.527344 C 87.191406 87.527344 100.285156 59.480469 100.90625 58.246094 C 101.523438 57.007812 124.625 55.378906 124.625 55.378906 C 124.625 55.378906 129.289062 64.148438 137.042969 68.191406 C 144.855469 72.242188 143.902344 72.578125 148.902344 77.523438 C 153.902344 82.523438 163.234375 90 176.667969 95.621094 C 190.101562 101.242188 196 107.761719 205.667969 114.957031 C 215.335938 122.148438 222.808594 123.046875 222.808594 127.09375 C 222.808594 131.140625 215.335938 132.097656 207.859375 130.636719 C 200.386719 129.175781 189.144531 132.714844 180.714844 132.042969 C 172.285156 131.367188 156.996094 131.140625 147.328125 132.042969 C 137.660156 132.941406 127.039062 129.289062 112.425781 129.117188 C 97.757812 128.949219 83.59375 129.117188 83.59375 129.117188 " fill-opacity="1" fill-rule="nonzero"/></g><g clip-path="url(#6b85635c3f)"><path fill="#dd2e44" d="M 118.214844 92.53125 L 114.054688 102.308594 C 114.054688 102.308594 120.351562 103.9375 122.035156 100.0625 C 123.667969 96.238281 118.214844 92.53125 118.214844 92.53125 Z M 111.359375 114.789062 C 110.347656 113.71875 109.785156 111.976562 108.492188 111.359375 C 107.199219 110.742188 105.515625 111.023438 103.996094 110.90625 C 102.589844 110.851562 101.128906 110.964844 99.722656 111.46875 C 98.320312 111.976562 96.691406 112.3125 95.621094 113.269531 C 94.554688 114.28125 94.386719 116.023438 93.765625 117.316406 C 93.148438 118.609375 93.039062 119.898438 92.980469 121.363281 C 92.921875 122.769531 91.914062 124.398438 92.417969 125.800781 C 92.921875 127.207031 94.441406 128.105469 95.398438 129.117188 C 96.410156 130.1875 97.363281 131.199219 98.710938 131.816406 C 100.003906 132.433594 101.410156 132.882812 102.871094 132.941406 C 104.277344 132.996094 105.851562 133.109375 107.3125 132.601562 C 108.71875 132.097656 109.730469 130.804688 110.796875 129.851562 C 111.867188 128.839844 113.042969 127.882812 113.664062 126.589844 C 114.28125 125.296875 114.226562 123.78125 114.335938 122.316406 C 114.394531 120.914062 114.675781 119.394531 114.167969 117.992188 C 113.664062 116.585938 112.3125 115.800781 111.359375 114.789062 Z M 202.859375 107.875 C 201.847656 106.808594 200.21875 106.636719 198.925781 106.019531 C 197.628906 105.402344 196.394531 104.894531 194.933594 104.839844 C 193.527344 104.78125 191.957031 104.21875 190.550781 104.726562 C 189.144531 105.234375 187.683594 106.019531 186.671875 106.972656 C 185.605469 107.984375 185.265625 109.617188 184.648438 110.90625 C 184.03125 112.199219 183.46875 113.492188 183.355469 115.011719 C 183.300781 116.417969 183.859375 117.710938 184.367188 119.113281 C 184.871094 120.519531 184.703125 122.375 185.660156 123.441406 C 186.671875 124.511719 188.414062 124.792969 189.707031 125.410156 C 191 126.027344 192.402344 126.082031 193.867188 126.195312 C 195.269531 126.25 196.507812 125.972656 197.96875 125.464844 C 199.375 124.957031 200.496094 124.339844 201.566406 123.386719 C 202.632812 122.375 203.308594 121.304688 203.925781 120.015625 C 204.542969 118.722656 205.164062 117.539062 205.21875 116.023438 C 205.273438 114.617188 204.769531 113.382812 204.261719 111.976562 C 203.8125 110.570312 203.8125 108.941406 202.859375 107.875 Z M 161.15625 116.867188 C 160.144531 115.855469 158.457031 115.800781 157.109375 115.238281 C 155.816406 114.675781 154.582031 114.335938 153.117188 114.335938 C 151.601562 114.335938 150.363281 114.617188 149.070312 115.179688 C 147.722656 115.742188 146.09375 115.910156 145.082031 116.921875 C 144.066406 117.933594 143.507812 119.394531 142.945312 120.742188 C 142.382812 122.035156 142.496094 123.441406 142.496094 124.957031 C 142.496094 126.476562 142.609375 127.769531 143.171875 129.117188 C 143.730469 130.46875 144.6875 131.367188 145.753906 132.433594 C 146.765625 133.445312 147.554688 134.738281 148.902344 135.300781 C 150.195312 135.863281 151.65625 136.144531 153.175781 136.144531 C 154.691406 136.144531 155.929688 135.355469 157.222656 134.792969 C 158.570312 134.230469 160.367188 134.230469 161.378906 133.222656 C 162.390625 132.210938 162.785156 130.578125 163.347656 129.230469 C 163.910156 127.9375 164.640625 126.53125 164.640625 125.015625 C 164.640625 123.5 163.402344 122.316406 162.839844 121.023438 C 162.222656 119.5625 162.167969 117.878906 161.15625 116.867188 Z M 125.074219 61.394531 C 124.0625 60.382812 122.710938 59.652344 121.363281 59.089844 C 120.070312 58.527344 118.609375 58.527344 117.089844 58.527344 C 115.574219 58.527344 114.28125 58.976562 112.988281 59.539062 C 111.640625 60.101562 110.628906 60.945312 109.558594 61.957031 C 108.546875 62.96875 107.59375 63.921875 107.03125 65.328125 C 106.46875 66.621094 105.402344 67.96875 105.402344 69.484375 C 105.402344 71.003906 105.738281 72.632812 106.300781 73.925781 C 106.863281 75.277344 108.4375 76.007812 109.449219 77.074219 C 110.460938 78.085938 111.359375 79.378906 112.707031 79.941406 C 114 80.503906 115.519531 80.558594 117.035156 80.558594 C 118.550781 80.558594 119.847656 79.941406 121.140625 79.433594 C 122.488281 78.871094 123.441406 77.972656 124.453125 76.960938 C 125.464844 75.949219 126.757812 75.164062 127.320312 73.8125 C 127.882812 72.523438 128.105469 71.058594 128.105469 69.542969 C 128.105469 68.027344 128.21875 66.453125 127.65625 65.160156 C 127.152344 63.640625 126.082031 62.40625 125.074219 61.394531 Z M 147.609375 106.46875 C 149.070312 106.410156 150.699219 106.410156 152.050781 105.792969 C 153.34375 105.175781 154.183594 103.714844 155.140625 102.589844 C 156.097656 101.523438 157.503906 100.625 158.007812 99.160156 C 158.515625 97.757812 157.613281 96.125 157.558594 94.71875 C 157.503906 93.261719 157.953125 91.6875 157.332031 90.339844 C 156.714844 89.046875 156.039062 87.472656 154.914062 86.515625 C 153.847656 85.5625 151.992188 85.785156 150.589844 85.28125 C 149.183594 84.773438 147.890625 83.761719 146.429688 83.816406 C 144.96875 83.875 143.28125 84.097656 141.988281 84.71875 C 140.695312 85.335938 139.515625 86.515625 138.5625 87.640625 C 137.605469 88.707031 136.707031 90 136.199219 91.40625 C 135.695312 92.8125 135.808594 94.441406 135.863281 95.84375 C 135.917969 97.308594 136.707031 98.601562 137.324219 99.894531 C 137.941406 101.1875 138.785156 102.253906 139.851562 103.207031 C 140.921875 104.164062 141.820312 105.402344 143.226562 105.90625 C 144.6875 106.410156 146.203125 106.527344 147.609375 106.46875 " fill-opacity="1" fill-rule="nonzero"/></g><path fill="#7ab240" d="M 213.875 124.0625 C 213.59375 123.667969 213.367188 124.117188 213.085938 124.230469 C 212.75 123.890625 212.804688 124.230469 212.355469 124.285156 C 212.1875 124.0625 212.242188 124.398438 212.132812 124.398438 C 211.960938 124.792969 211.738281 124.566406 211.402344 124.734375 C 210.949219 125.410156 210.613281 125.296875 209.660156 125.691406 C 208.757812 126.363281 207.917969 126.644531 206.90625 126.421875 C 206.679688 126.589844 206.625 126.421875 206.398438 126.757812 C 206.171875 126.644531 205.835938 126.476562 205.554688 126.421875 C 205.21875 126.363281 204.9375 126.308594 204.65625 126.421875 C 204.542969 125.859375 203.8125 126.027344 203.589844 125.691406 C 202.800781 125.355469 202.070312 125.015625 201.339844 124.621094 C 201.003906 124.398438 200.667969 124.171875 200.328125 123.949219 C 200.160156 123.835938 199.992188 123.667969 199.878906 123.554688 C 199.710938 123.386719 199.597656 123.273438 199.484375 123.105469 C 198.867188 122.597656 198.472656 122.09375 198.082031 121.644531 C 197.6875 121.195312 197.292969 120.859375 196.734375 120.460938 C 196.84375 120.015625 196.734375 119.734375 196.675781 119.453125 C 196.5625 119.171875 196.453125 118.777344 196.507812 118.269531 C 196 117.316406 195.890625 116.082031 195.550781 115.238281 C 195.890625 114.789062 195.609375 114.507812 195.777344 113.945312 C 196.171875 112.933594 196.84375 111.917969 197.070312 110.964844 C 197.238281 110.796875 197.460938 110.625 197.519531 110.289062 C 197.6875 110.289062 198.191406 109.898438 197.628906 109.671875 C 197.628906 109.277344 197.460938 109.898438 197.238281 109.671875 C 196.957031 109.503906 197.292969 109.277344 196.789062 109.109375 C 195.496094 109.953125 195.101562 111.46875 194.316406 112.707031 C 194.148438 113.4375 193.976562 114.054688 193.753906 114.675781 C 193.753906 115.855469 193.976562 117.203125 194.089844 117.878906 C 194.148438 118.382812 194.148438 119.226562 194.652344 119.394531 C 194.765625 119.453125 194.539062 119.5625 194.539062 119.5625 C 194.765625 120.125 194.878906 120.632812 194.988281 121.136719 C 195.101562 121.585938 195.269531 122.035156 195.664062 122.429688 C 196 122.710938 196.394531 122.878906 196.789062 122.992188 C 197.070312 123.835938 197.800781 124.621094 198.644531 125.074219 C 198.644531 125.355469 198.753906 125.519531 198.925781 125.636719 C 199.09375 125.746094 199.316406 125.800781 199.484375 126.027344 C 200.046875 126.308594 200.554688 126.589844 201.058594 126.757812 C 201.566406 126.984375 202.015625 127.207031 202.464844 127.375 C 202.914062 127.546875 203.363281 127.769531 203.925781 127.9375 C 204.433594 128.105469 204.996094 128.332031 205.609375 128.445312 C 205.949219 128.445312 206.117188 128.164062 206.398438 128.164062 C 206.734375 128.277344 207.074219 128.332031 207.464844 128.332031 C 207.859375 128.332031 208.199219 128.21875 208.589844 128.164062 C 208.984375 128.105469 209.265625 127.882812 209.601562 127.769531 C 209.941406 127.601562 210.164062 127.433594 210.386719 127.265625 C 210.613281 127.09375 210.839844 127.039062 211.066406 126.871094 C 211.230469 126.703125 211.347656 126.476562 211.511719 126.363281 C 211.851562 126.082031 212.355469 126.027344 212.46875 125.578125 C 212.695312 125.746094 212.976562 125.464844 213.253906 125.355469 C 213.3125 125.128906 213.648438 125.074219 213.59375 124.792969 C 213.707031 124.453125 214.269531 124.453125 213.875 124.0625 Z M 174.585938 114.507812 C 174.644531 113.605469 174.304688 112.652344 173.6875 111.863281 C 173.800781 111.582031 173.746094 111.414062 173.632812 111.246094 C 173.519531 111.078125 173.351562 110.964844 173.292969 110.683594 C 172.847656 110.179688 172.507812 109.730469 172.113281 109.390625 C 171.722656 108.996094 171.441406 108.605469 171.046875 108.265625 C 170.652344 107.929688 170.371094 107.535156 169.921875 107.199219 C 169.527344 106.863281 169.078125 106.410156 168.574219 106.074219 C 168.292969 105.964844 168.011719 106.128906 167.730469 106.019531 C 167.449219 105.792969 167.167969 105.570312 166.832031 105.457031 C 166.496094 105.289062 166.101562 105.234375 165.765625 105.175781 C 165.371094 105.121094 165.03125 105.121094 164.695312 105.175781 C 164.359375 105.175781 164.019531 105.234375 163.738281 105.289062 C 163.457031 105.34375 163.234375 105.289062 163.011719 105.402344 C 162.785156 105.457031 162.5625 105.625 162.390625 105.683594 C 161.941406 105.792969 161.492188 105.683594 161.15625 106.019531 C 160.988281 105.792969 160.648438 105.90625 160.3125 105.964844 C 160.144531 106.128906 159.804688 106.074219 159.75 106.355469 C 159.582031 106.46875 159.019531 106.246094 159.300781 106.808594 C 159.414062 107.3125 159.804688 106.972656 160.085938 106.972656 C 160.3125 107.421875 160.367188 107.140625 160.761719 107.199219 C 160.816406 107.480469 160.875 107.140625 161.042969 107.199219 C 161.324219 106.863281 161.492188 107.199219 161.886719 107.140625 C 162.5625 106.691406 162.839844 106.917969 163.855469 106.917969 C 164.921875 106.636719 165.820312 106.75 166.664062 107.3125 C 166.945312 107.199219 166.886719 107.421875 167.226562 107.199219 C 167.394531 107.367188 167.617188 107.648438 167.898438 107.875 C 168.179688 108.042969 168.40625 108.210938 168.6875 108.210938 C 168.574219 108.773438 169.304688 108.886719 169.417969 109.335938 C 170.035156 109.953125 170.597656 110.570312 171.101562 111.1875 C 171.328125 111.527344 171.554688 111.863281 171.777344 112.199219 C 171.890625 112.371094 171.945312 112.539062 172.058594 112.761719 C 172.113281 112.933594 172.226562 113.15625 172.285156 113.324219 C 172.621094 114.054688 172.789062 114.617188 173.011719 115.179688 C 173.238281 115.742188 173.410156 116.246094 173.800781 116.808594 C 173.519531 117.203125 173.519531 117.484375 173.464844 117.765625 C 173.464844 118.101562 173.464844 118.496094 173.183594 118.945312 C 173.292969 120.015625 172.902344 121.195312 172.902344 122.09375 C 172.449219 122.375 172.566406 122.769531 172.171875 123.21875 C 171.382812 124.003906 170.371094 124.675781 169.808594 125.464844 C 169.585938 125.578125 169.304688 125.636719 169.136719 125.914062 C 168.96875 125.859375 168.351562 126.027344 168.796875 126.421875 C 168.6875 126.8125 169.023438 126.25 169.136719 126.53125 C 169.304688 126.8125 168.910156 126.871094 169.304688 127.265625 C 170.820312 126.984375 171.777344 125.746094 172.957031 124.902344 C 173.351562 124.285156 173.800781 123.78125 174.25 123.328125 C 174.699219 122.207031 175.039062 120.914062 175.207031 120.238281 C 175.320312 119.789062 175.710938 118.945312 175.320312 118.609375 C 175.207031 118.550781 175.488281 118.496094 175.488281 118.550781 C 175.488281 117.933594 175.597656 117.429688 175.710938 116.921875 C 175.769531 116.417969 175.769531 115.964844 175.597656 115.460938 C 175.261719 115.066406 174.925781 114.789062 174.585938 114.507812 Z M 110.460938 69.878906 C 110.683594 70.554688 110.851562 71.230469 110.90625 71.847656 C 111.527344 72.859375 112.371094 73.925781 112.820312 74.433594 C 113.101562 74.824219 113.550781 75.613281 114.054688 75.445312 C 114.167969 75.445312 114.054688 75.667969 114 75.613281 C 114.507812 76.007812 114.84375 76.398438 115.179688 76.738281 C 115.519531 77.074219 115.910156 77.410156 116.417969 77.523438 C 116.808594 77.636719 117.257812 77.523438 117.710938 77.410156 C 118.382812 78.027344 119.394531 78.308594 120.351562 78.253906 C 120.519531 78.535156 120.632812 78.589844 120.859375 78.589844 C 121.023438 78.589844 121.25 78.535156 121.53125 78.648438 C 122.148438 78.589844 122.769531 78.589844 123.273438 78.535156 C 123.78125 78.480469 124.285156 78.480469 124.792969 78.367188 C 125.296875 78.253906 125.800781 78.253906 126.308594 78.144531 C 126.8125 78.027344 127.433594 77.917969 128.050781 77.746094 C 128.332031 77.582031 128.332031 77.300781 128.613281 77.128906 C 128.949219 77.074219 129.289062 76.90625 129.625 76.738281 C 129.960938 76.570312 130.242188 76.289062 130.523438 76.007812 C 130.804688 75.726562 131.03125 75.445312 131.199219 75.164062 C 131.367188 74.882812 131.535156 74.601562 131.648438 74.320312 C 131.761719 74.039062 131.929688 73.925781 132.042969 73.648438 C 132.097656 73.421875 132.097656 73.140625 132.210938 72.96875 C 132.378906 72.523438 132.773438 72.296875 132.660156 71.792969 C 132.941406 71.792969 133.054688 71.453125 133.222656 71.171875 C 133.164062 70.949219 133.445312 70.722656 133.222656 70.5 C 133.222656 70.273438 133.726562 69.992188 133.164062 69.878906 C 132.714844 69.65625 132.714844 70.160156 132.546875 70.386719 C 132.097656 70.273438 132.265625 70.5 131.929688 70.777344 C 131.648438 70.667969 131.871094 70.890625 131.761719 71.003906 C 131.816406 71.453125 131.480469 71.339844 131.308594 71.679688 C 131.253906 72.464844 130.917969 72.578125 130.296875 73.367188 C 129.851562 74.375 129.230469 75.050781 128.277344 75.386719 C 128.164062 75.667969 128.050781 75.5 128.050781 75.949219 C 127.769531 76.007812 127.433594 76.007812 127.152344 76.0625 C 126.871094 76.175781 126.53125 76.289062 126.363281 76.511719 C 125.972656 76.0625 125.464844 76.625 125.015625 76.398438 C 124.171875 76.511719 123.328125 76.570312 122.542969 76.625 C 122.148438 76.625 121.699219 76.570312 121.304688 76.570312 C 121.082031 76.570312 120.914062 76.511719 120.6875 76.457031 C 120.519531 76.398438 120.296875 76.34375 120.125 76.289062 C 119.339844 76.175781 118.777344 75.894531 118.214844 75.726562 C 117.652344 75.554688 117.148438 75.445312 116.417969 75.386719 C 116.304688 74.9375 116.082031 74.769531 115.855469 74.542969 C 115.628906 74.320312 115.292969 74.09375 115.125 73.589844 C 114.226562 73.027344 113.496094 72.015625 112.820312 71.453125 C 112.875 70.890625 112.480469 70.835938 112.371094 70.21875 C 112.203125 69.148438 112.257812 67.910156 111.976562 67.015625 C 112.03125 66.789062 112.144531 66.5625 112.03125 66.226562 C 112.144531 66.113281 112.425781 65.550781 111.867188 65.664062 C 111.640625 65.328125 111.867188 65.945312 111.527344 65.890625 C 111.1875 65.890625 111.359375 65.496094 110.851562 65.609375 C 110.066406 66.902344 110.515625 68.472656 110.460938 69.878906 Z M 129.175781 110.742188 C 128.164062 110.066406 126.984375 109.503906 126.308594 109.222656 C 125.859375 108.996094 125.128906 108.492188 124.734375 108.828125 C 124.625 108.886719 124.679688 108.605469 124.679688 108.660156 C 124.0625 108.492188 123.609375 108.324219 123.160156 108.15625 C 122.710938 107.984375 122.207031 107.875 121.699219 107.984375 C 121.304688 108.097656 120.914062 108.324219 120.578125 108.605469 C 119.675781 108.378906 118.664062 108.546875 117.820312 108.996094 C 117.597656 108.828125 117.429688 108.828125 117.257812 108.886719 C 117.089844 108.996094 116.921875 109.109375 116.644531 109.109375 C 116.082031 109.449219 115.574219 109.671875 115.125 110.011719 C 114.675781 110.289062 114.226562 110.515625 113.832031 110.851562 C 113.4375 111.132812 112.988281 111.359375 112.539062 111.75 C 112.089844 112.089844 111.640625 112.425781 111.132812 112.875 C 110.964844 113.15625 111.078125 113.4375 110.90625 113.664062 C 110.628906 113.886719 110.402344 114.167969 110.179688 114.449219 C 109.953125 114.730469 109.839844 115.121094 109.671875 115.460938 C 109.558594 115.800781 109.503906 116.191406 109.449219 116.527344 C 109.390625 116.867188 109.390625 117.203125 109.390625 117.484375 C 109.390625 117.765625 109.277344 117.992188 109.335938 118.214844 C 109.390625 118.496094 109.503906 118.664062 109.503906 118.890625 C 109.558594 119.339844 109.335938 119.734375 109.617188 120.125 C 109.335938 120.238281 109.390625 120.632812 109.390625 120.914062 C 109.503906 121.082031 109.390625 121.417969 109.671875 121.53125 C 109.785156 121.753906 109.449219 122.207031 110.011719 122.09375 C 110.515625 122.09375 110.292969 121.644531 110.347656 121.363281 C 110.796875 121.25 110.515625 121.136719 110.742188 120.742188 C 111.023438 120.742188 110.742188 120.632812 110.796875 120.460938 C 110.515625 120.125 110.851562 120.015625 110.90625 119.621094 C 110.628906 118.890625 110.90625 118.609375 111.078125 117.652344 C 111.023438 116.527344 111.304688 115.683594 112.03125 114.957031 C 111.976562 114.675781 112.203125 114.789062 112.03125 114.335938 C 112.257812 114.167969 112.539062 114 112.820312 113.832031 C 113.042969 113.605469 113.269531 113.382812 113.324219 113.101562 C 113.832031 113.324219 114.113281 112.59375 114.5625 112.59375 C 115.292969 112.089844 115.964844 111.695312 116.699219 111.304688 C 117.089844 111.132812 117.429688 110.964844 117.820312 110.851562 C 117.992188 110.796875 118.214844 110.742188 118.382812 110.683594 C 118.609375 110.625 118.777344 110.625 119.003906 110.570312 C 119.789062 110.347656 120.40625 110.289062 120.96875 110.234375 C 121.53125 110.121094 122.09375 110.066406 122.710938 109.785156 C 123.050781 110.121094 123.273438 110.179688 123.609375 110.289062 C 123.949219 110.347656 124.285156 110.460938 124.679688 110.796875 C 125.746094 110.90625 126.8125 111.527344 127.714844 111.695312 C 127.882812 112.199219 128.277344 112.144531 128.667969 112.59375 C 129.289062 113.492188 129.738281 114.617188 130.414062 115.347656 C 130.46875 115.628906 130.46875 115.855469 130.695312 116.136719 C 130.636719 116.246094 130.636719 116.921875 131.140625 116.585938 C 131.480469 116.808594 131.03125 116.304688 131.308594 116.246094 C 131.589844 116.136719 131.589844 116.527344 132.042969 116.246094 C 132.097656 114.730469 131.03125 113.492188 130.46875 112.199219 C 129.960938 111.808594 129.570312 111.304688 129.175781 110.742188 Z M 150.140625 91.800781 C 150.027344 92.082031 149.96875 92.472656 149.6875 92.53125 C 149.859375 92.980469 149.578125 93.316406 149.464844 93.769531 C 149.40625 93.992188 149.464844 94.214844 149.464844 94.496094 C 149.40625 94.777344 149.296875 94.945312 149.242188 95.226562 C 149.183594 95.507812 149.070312 95.789062 148.960938 96.125 C 148.84375 96.464844 148.679688 96.800781 148.453125 97.082031 C 148.230469 97.363281 148.003906 97.703125 147.722656 97.925781 C 147.441406 98.148438 147.105469 98.375 146.824219 98.488281 C 146.597656 98.710938 146.65625 98.992188 146.429688 99.21875 C 145.867188 99.554688 145.304688 99.722656 144.800781 99.949219 C 144.292969 100.175781 143.789062 100.285156 143.339844 100.457031 C 142.890625 100.625 142.382812 100.734375 141.878906 100.90625 C 141.371094 101.070312 140.808594 101.1875 140.191406 101.351562 C 139.910156 101.296875 139.6875 101.351562 139.515625 101.410156 C 139.347656 101.410156 139.179688 101.410156 138.953125 101.1875 C 138 101.410156 136.988281 101.296875 136.199219 100.847656 C 135.808594 101.015625 135.414062 101.1875 134.964844 101.1875 C 134.457031 101.1875 134.007812 100.960938 133.617188 100.679688 C 133.222656 100.398438 132.773438 100.0625 132.265625 99.78125 C 132.324219 99.78125 132.378906 99.554688 132.265625 99.554688 C 131.816406 99.78125 131.253906 99.105469 130.859375 98.769531 C 130.296875 98.320312 129.289062 97.476562 128.5 96.578125 C 128.277344 95.957031 127.996094 95.339844 127.65625 94.71875 C 127.433594 93.316406 126.703125 91.910156 127.152344 90.394531 C 127.65625 90.222656 127.546875 90.621094 127.882812 90.5625 C 128.164062 90.5625 127.828125 90 128.164062 90.28125 C 128.726562 90.058594 128.558594 90.675781 128.445312 90.785156 C 128.613281 91.066406 128.558594 91.347656 128.5 91.574219 C 128.949219 92.417969 129.121094 93.652344 129.511719 94.664062 C 129.738281 95.226562 130.1875 95.226562 130.1875 95.789062 C 130.972656 96.183594 131.871094 97.027344 132.882812 97.421875 C 133.164062 97.867188 133.503906 98.039062 133.785156 98.207031 C 134.066406 98.375 134.289062 98.488281 134.511719 98.9375 C 135.191406 98.882812 135.75 98.882812 136.3125 98.9375 C 136.875 98.992188 137.550781 99.105469 138.335938 99.105469 C 138.5625 99.160156 138.730469 99.160156 138.953125 99.160156 C 139.179688 99.160156 139.347656 99.160156 139.570312 99.160156 C 139.96875 99.105469 140.359375 99.050781 140.808594 98.992188 C 141.597656 98.828125 142.382812 98.601562 143.226562 98.265625 C 143.675781 98.375 144.125 97.757812 144.519531 98.09375 C 144.628906 97.8125 144.910156 97.644531 145.191406 97.53125 C 145.472656 97.363281 145.8125 97.308594 146.035156 97.25 C 145.980469 96.800781 146.148438 96.96875 146.148438 96.6875 C 147.046875 96.183594 147.496094 95.398438 147.722656 94.328125 C 148.171875 93.429688 148.507812 93.261719 148.398438 92.472656 C 148.507812 92.136719 148.902344 92.136719 148.734375 91.6875 C 148.84375 91.574219 148.566406 91.347656 148.84375 91.40625 C 149.125 91.066406 148.84375 90.902344 149.351562 90.902344 C 149.464844 90.621094 149.351562 90.167969 149.859375 90.28125 C 150.476562 90.28125 150.027344 90.675781 150.027344 90.902344 C 150.25 91.292969 150.082031 91.574219 150.140625 91.800781 " fill-opacity="1" fill-rule="nonzero"/><g clip-path="url(#af5de73eff)"><path fill="#b04b26" d="M 94.777344 85.222656 C 97.082031 81.066406 99.949219 77.242188 102.871094 73.476562 C 103.714844 72.351562 104.613281 71.285156 105.457031 70.21875 C 105.457031 70.046875 105.457031 69.878906 105.457031 69.65625 C 105.457031 68.136719 106.527344 66.789062 107.089844 65.496094 C 107.648438 64.148438 108.605469 63.191406 109.617188 62.125 C 110.628906 61.113281 111.640625 60.269531 113.042969 59.707031 C 114.335938 59.144531 115.628906 58.695312 117.148438 58.695312 C 117.429688 58.695312 117.710938 58.695312 117.933594 58.695312 C 118.945312 58.078125 120.015625 57.570312 121.082031 57.121094 C 122.261719 56.617188 123.554688 56.167969 124.566406 55.378906 C 125.578125 54.59375 125.519531 50.546875 123.890625 49.308594 C 119.621094 46.050781 114.617188 42.957031 109.167969 42.957031 C 104.558594 42.957031 100.117188 45.265625 96.746094 48.410156 C 93.371094 51.558594 90.84375 55.492188 88.484375 59.480469 C 75.726562 81.007812 63.640625 96.578125 65.664062 121.53125 L 65.664062 126.195312 C 66.5625 128.78125 69.035156 130.578125 71.679688 131.367188 C 74.320312 132.152344 77.074219 132.152344 79.828125 132.097656 C 81.402344 132.097656 83.085938 132.042969 84.378906 131.085938 C 86.460938 129.570312 86.574219 126.53125 86.515625 123.949219 C 86.347656 110.570312 88.261719 96.859375 94.777344 85.222656 Z M 190.605469 107.648438 C 190.550781 107.199219 190.4375 106.75 190.15625 106.410156 C 189.707031 105.847656 188.863281 105.738281 188.1875 105.964844 C 187.515625 106.1875 187.007812 107.367188 186.335938 107.253906 C 185.714844 107.140625 185.492188 106.46875 185.265625 105.90625 C 185.042969 105.34375 184.703125 104.671875 184.085938 104.726562 C 183.75 104.726562 183.46875 104.953125 183.242188 105.121094 C 182.121094 105.964844 181.726562 106.246094 180.488281 106.808594 C 180.207031 106.917969 179.925781 107.085938 179.816406 107.3125 C 179.644531 107.648438 179.816406 107.984375 179.984375 108.324219 C 180.433594 109.054688 180.996094 109.730469 181.667969 110.289062 C 181.050781 110.90625 179.925781 110.742188 179.253906 111.304688 C 178.464844 111.917969 178.632812 113.269531 179.363281 114 C 180.09375 114.675781 181.21875 114.84375 182.230469 114.789062 C 182.230469 114.789062 183.917969 115.628906 187.34375 113.214844 C 190.71875 110.742188 190.832031 109.617188 190.605469 107.648438 Z M 103.378906 109.617188 C 103.378906 109.617188 102.3125 108.097656 98.148438 108.546875 C 93.992188 109.054688 93.371094 109.953125 92.585938 111.808594 C 92.417969 112.199219 92.304688 112.652344 92.417969 113.101562 C 92.585938 113.832031 93.261719 114.335938 93.933594 114.449219 C 94.609375 114.5625 95.621094 113.773438 96.183594 114.226562 C 96.632812 114.617188 96.578125 115.347656 96.464844 115.910156 C 96.351562 116.527344 96.410156 117.257812 96.972656 117.539062 C 97.253906 117.710938 97.589844 117.652344 97.925781 117.597656 C 99.332031 117.371094 99.78125 117.316406 101.1875 117.429688 C 101.46875 117.429688 101.804688 117.484375 102.03125 117.316406 C 102.3125 117.089844 102.367188 116.695312 102.3125 116.359375 C 102.253906 115.519531 102.085938 114.617188 101.804688 113.832031 C 102.648438 113.550781 103.546875 114.226562 104.390625 114.113281 C 105.402344 113.945312 105.90625 112.652344 105.570312 111.695312 C 105.175781 110.683594 104.277344 110.066406 103.378906 109.617188 Z M 127.9375 65.269531 C 127.9375 65.269531 126.925781 63.695312 122.710938 64.09375 C 118.550781 64.484375 117.878906 65.382812 117.089844 67.183594 C 116.921875 67.574219 116.808594 68.027344 116.867188 68.472656 C 116.980469 69.207031 117.652344 69.710938 118.382812 69.878906 C 119.113281 70.046875 120.125 69.261719 120.632812 69.710938 C 121.082031 70.105469 120.96875 70.835938 120.859375 71.453125 C 120.742188 72.074219 120.742188 72.804688 121.304688 73.085938 C 121.585938 73.25 121.925781 73.195312 122.261719 73.140625 C 123.667969 72.96875 124.117188 72.914062 125.519531 73.085938 C 125.800781 73.085938 126.140625 73.140625 126.363281 72.96875 C 126.644531 72.746094 126.703125 72.351562 126.703125 72.015625 C 126.703125 71.171875 126.53125 70.273438 126.253906 69.484375 C 127.09375 69.207031 127.996094 69.9375 128.839844 69.824219 C 129.851562 69.710938 130.414062 68.417969 130.074219 67.464844 C 129.738281 66.394531 128.839844 65.722656 127.9375 65.269531 Z M 156.601562 103.378906 C 156.941406 103.378906 157.222656 103.097656 157.445312 102.816406 C 157.953125 102.140625 158.398438 101.351562 158.679688 100.511719 C 159.523438 100.847656 159.75 101.914062 160.480469 102.367188 C 161.378906 102.871094 162.5625 102.253906 162.953125 101.296875 C 163.347656 100.34375 163.066406 99.273438 162.617188 98.375 C 162.617188 98.375 162.785156 96.519531 159.300781 94.214844 C 155.757812 91.910156 154.691406 92.25 152.949219 93.148438 C 152.554688 93.371094 152.164062 93.597656 151.992188 93.992188 C 151.65625 94.609375 151.824219 95.453125 152.332031 96.015625 C 152.78125 96.578125 154.074219 96.578125 154.183594 97.25 C 154.300781 97.867188 153.738281 98.375 153.285156 98.769531 C 152.835938 99.160156 152.386719 99.78125 152.613281 100.34375 C 152.726562 100.625 153.0625 100.792969 153.285156 100.960938 C 154.464844 101.691406 154.859375 101.972656 155.871094 102.925781 C 156.097656 103.152344 156.320312 103.378906 156.601562 103.378906 Z M 163.683594 119.507812 C 164.414062 119.957031 165.144531 120.460938 165.707031 121.136719 C 165.933594 121.417969 166.15625 121.753906 166.101562 122.09375 C 166.042969 122.375 165.765625 122.542969 165.539062 122.710938 C 164.414062 123.554688 164.078125 123.835938 163.121094 124.902344 C 162.894531 125.128906 162.671875 125.410156 162.390625 125.464844 C 161.773438 125.578125 161.324219 125.015625 160.988281 124.511719 C 160.648438 124.003906 160.253906 123.386719 159.691406 123.386719 C 159.019531 123.386719 158.738281 124.621094 158.121094 125.015625 C 157.503906 125.355469 156.660156 125.410156 156.097656 124.957031 C 155.757812 124.675781 155.535156 124.285156 155.421875 123.835938 C 154.804688 121.925781 154.691406 120.800781 157.613281 117.765625 C 160.535156 114.730469 162.335938 115.238281 162.335938 115.238281 C 163.292969 114.957031 164.414062 114.898438 165.3125 115.402344 C 166.15625 115.910156 166.605469 117.257812 165.933594 117.992188 C 165.257812 118.722656 164.132812 118.722656 163.683594 119.507812 " fill-opacity="1" fill-rule="nonzero"/></g><path fill="#fff5e1" d="M 182.121094 99.21875 C 182.625 98.375 182.964844 92.699219 178.632812 90.785156 C 177.117188 82.414062 175.597656 73.980469 174.136719 65.609375 C 173.632812 62.742188 173.519531 57.402344 169.699219 57.121094 C 166.042969 56.839844 161.660156 58.355469 158.175781 59.199219 C 154.183594 60.210938 150.195312 61.394531 146.316406 62.628906 C 142.382812 63.921875 138.503906 65.269531 134.628906 66.734375 C 134.628906 66.734375 135.355469 68.472656 137.71875 68.53125 C 146.375 65.269531 155.308594 62.460938 164.359375 60.71875 C 166.664062 60.269531 170.035156 59.199219 170.710938 62.125 C 171.046875 63.585938 171.214844 65.101562 171.496094 66.5625 C 172.394531 71.679688 173.351562 76.792969 174.25 81.851562 C 174.8125 84.941406 175.375 87.976562 175.878906 91.066406 C 174.8125 91.519531 173.632812 92.191406 173.574219 93.148438 C 173.464844 94.945312 171.722656 96.96875 175.65625 98.207031 C 179.644531 99.441406 181.558594 100.117188 182.121094 99.21875 Z M 111.078125 88.257812 C 108.773438 87.246094 106.582031 87.300781 106.128906 88.3125 C 105.683594 89.328125 107.199219 91.011719 109.449219 91.96875 C 111.75 92.980469 113.945312 92.925781 114.394531 91.910156 C 114.84375 90.902344 113.324219 89.269531 111.078125 88.257812 Z M 106.972656 97.703125 C 104.671875 96.6875 102.476562 96.746094 102.03125 97.757812 C 101.578125 98.769531 103.097656 100.457031 105.34375 101.410156 C 107.648438 102.421875 109.839844 102.367188 110.292969 101.351562 C 110.742188 100.34375 109.277344 98.710938 106.972656 97.703125 Z M 186.335938 121.023438 C 186.335938 119.957031 185.433594 119.058594 184.367188 119.058594 C 183.300781 119.058594 182.402344 119.957031 182.402344 121.023438 C 182.402344 122.09375 183.300781 122.992188 184.367188 122.992188 C 185.433594 122.992188 186.335938 122.148438 186.335938 121.023438 Z M 189.089844 121.023438 C 189.089844 123.609375 186.953125 125.746094 184.367188 125.746094 C 181.78125 125.746094 179.644531 123.609375 179.644531 121.023438 C 179.644531 118.441406 181.78125 116.304688 184.367188 116.304688 C 187.007812 116.359375 189.089844 118.441406 189.089844 121.023438 Z M 151.09375 114.335938 C 151.09375 113.269531 150.195312 112.371094 149.125 112.371094 C 148.058594 112.371094 147.160156 113.269531 147.160156 114.335938 C 147.160156 115.402344 148.058594 116.304688 149.125 116.304688 C 150.195312 116.304688 151.09375 115.402344 151.09375 114.335938 Z M 153.847656 114.335938 C 153.847656 116.921875 151.710938 119.058594 149.125 119.058594 C 146.542969 119.058594 144.40625 116.921875 144.40625 114.335938 C 144.40625 111.75 146.542969 109.617188 149.125 109.617188 C 151.710938 109.617188 153.847656 111.75 153.847656 114.335938 Z M 137.773438 82.695312 C 137.773438 81.628906 136.875 80.726562 135.808594 80.726562 C 134.738281 80.726562 133.839844 81.628906 133.839844 82.695312 C 133.839844 83.761719 134.738281 84.660156 135.808594 84.660156 C 136.875 84.660156 137.773438 83.761719 137.773438 82.695312 Z M 140.527344 82.695312 C 140.527344 85.28125 138.394531 87.417969 135.808594 87.417969 C 133.222656 87.417969 131.085938 85.28125 131.085938 82.695312 C 131.085938 80.109375 133.222656 77.972656 135.808594 77.972656 C 138.394531 77.972656 140.527344 80.109375 140.527344 82.695312 Z M 125.410156 120.238281 C 125.410156 119.171875 124.511719 118.269531 123.441406 118.269531 C 122.375 118.269531 121.476562 119.171875 121.476562 120.238281 C 121.476562 121.304688 122.375 122.207031 123.441406 122.207031 C 124.566406 122.207031 125.410156 121.304688 125.410156 120.238281 Z M 128.21875 120.238281 C 128.21875 122.824219 126.082031 124.957031 123.5 124.957031 C 120.914062 124.957031 118.777344 122.824219 118.777344 120.238281 C 118.777344 117.652344 120.914062 115.519531 123.5 115.519531 C 126.082031 115.519531 128.21875 117.652344 128.21875 120.238281 Z M 74.152344 83.761719 C 72.632812 86.796875 71.230469 89.777344 69.992188 92.8125 C 69.9375 92.925781 69.878906 93.035156 69.878906 93.148438 C 69.488281 94.050781 68.136719 96.464844 64.652344 97.363281 C 56.222656 102.925781 48.015625 109.390625 42.226562 117.765625 C 41.273438 119.171875 39.867188 121.082031 41.664062 122.429688 C 42.453125 122.992188 44.308594 122.992188 45.207031 123.160156 C 48.1875 123.722656 51.21875 124.117188 54.257812 124.398438 C 58.023438 124.734375 61.84375 124.902344 65.664062 124.902344 L 66.171875 126.195312 C 66.339844 126.757812 66.113281 127.207031 66.453125 127.714844 C 60.664062 127.769531 54.875 127.433594 49.140625 126.644531 C 45.9375 126.195312 36.15625 126.027344 37.449219 120.460938 C 38.070312 117.820312 40.488281 115.238281 42.117188 113.15625 C 44.195312 110.570312 46.441406 108.210938 48.859375 106.019531 C 53.1875 101.972656 57.910156 98.429688 62.855469 95.171875 C 64.820312 92.585938 69.035156 87.019531 70.046875 85.730469 C 71.453125 83.929688 74.152344 83.761719 74.152344 83.761719 " fill-opacity="1" fill-rule="nonzero"/><g fill="#fff5e1" fill-opacity="1"><g transform="translate(0.90887, 170.27688)"><g><path d="M 1.765625 0 L 1.765625 -25.453125 L 15.296875 -25.453125 C 17.441406 -25.453125 19.296875 -25.070312 20.859375 -24.3125 C 22.429688 -23.5625 23.644531 -22.5 24.5 -21.125 C 25.363281 -19.757812 25.796875 -18.140625 25.796875 -16.265625 C 25.796875 -14.398438 25.359375 -12.773438 24.484375 -11.390625 C 23.617188 -10.015625 22.394531 -8.945312 20.8125 -8.1875 C 19.238281 -7.4375 17.367188 -7.0625 15.203125 -7.0625 L 10.953125 -7.0625 L 10.921875 0 Z M 10.953125 -13.4375 L 13.4375 -13.4375 C 14.46875 -13.4375 15.253906 -13.679688 15.796875 -14.171875 C 16.335938 -14.671875 16.609375 -15.367188 16.609375 -16.265625 C 16.609375 -17.148438 16.335938 -17.835938 15.796875 -18.328125 C 15.253906 -18.828125 14.46875 -19.078125 13.4375 -19.078125 L 10.921875 -19.078125 Z M 10.953125 -13.4375 "/></g></g></g><g fill="#fff5e1" fill-opacity="1"><g transform="translate(30.124011, 170.27688)"><g><path d="M 1.765625 0 L 1.765625 -25.453125 L 10.953125 -25.453125 L 10.953125 0 Z M 1.765625 0 "/></g></g></g><g fill="#fff5e1" fill-opacity="1"><g transform="translate(45.562235, 170.27688)"><g><path d="M 1.40625 0 L 1.40625 -7.875 L 12.015625 -18.375 L 1.765625 -18.375 L 1.765625 -25.453125 L 22.265625 -25.453125 L 22.265625 -17.390625 L 11.625 -7.0625 L 22.625 -7.0625 L 22.625 0 Z M 1.40625 0 "/></g></g></g><g fill="#fff5e1" fill-opacity="1"><g transform="translate(72.304607, 170.27688)"><g><path d="M 1.40625 0 L 1.40625 -7.875 L 12.015625 -18.375 L 1.765625 -18.375 L 1.765625 -25.453125 L 22.265625 -25.453125 L 22.265625 -17.390625 L 11.625 -7.0625 L 22.625 -7.0625 L 22.625 0 Z M 1.40625 0 "/></g></g></g><g fill="#fff5e1" fill-opacity="1"><g transform="translate(99.046979, 170.27688)"><g><path d="M 1.765625 0 L 1.765625 -25.453125 L 20.140625 -25.453125 L 20.140625 -18.375 L 10.609375 -18.375 L 10.609375 -15.90625 L 18.734375 -15.90625 L 18.734375 -9.890625 L 10.609375 -9.890625 L 10.609375 -7.0625 L 20.5 -7.0625 L 20.5 0 Z M 1.765625 0 "/></g></g></g><g fill="#fff5e1" fill-opacity="1"><g transform="translate(122.963314, 170.27688)"><g><path d="M 1.765625 0 L 1.765625 -25.453125 L 10.953125 -25.453125 L 10.953125 -7.78125 L 19.078125 -7.78125 L 19.078125 0 Z M 1.765625 0 "/></g></g></g><g fill="#fff5e1" fill-opacity="1"><g transform="translate(145.466623, 170.27688)"><g><path d="M 1.765625 0 L 1.765625 -25.453125 L 10.953125 -25.453125 L 10.953125 -7.78125 L 19.078125 -7.78125 L 19.078125 0 Z M 1.765625 0 "/></g></g></g><g fill="#fff5e1" fill-opacity="1"><g transform="translate(167.969932, 170.27688)"><g><path d="M 0 0 L 8.515625 -25.453125 L 19.828125 -25.453125 L 28.34375 0 L 18.765625 0 L 17.78125 -3.890625 L 10.5 -3.890625 L 9.5 0 Z M 11.8125 -9.890625 L 16.46875 -9.890625 L 14.203125 -18.765625 L 14.140625 -18.765625 Z M 11.8125 -9.890625 "/></g></g></g><g fill="#fff5e1" fill-opacity="1"><g transform="translate(199.022009, 170.27688)"><g><path d="M 21.34375 0.53125 C 19.832031 0.53125 18.53125 0.113281 17.4375 -0.71875 C 16.34375 -1.5625 15.5625 -2.734375 15.09375 -4.234375 L 14.453125 -6.359375 C 14.285156 -6.921875 14.039062 -7.414062 13.71875 -7.84375 C 13.40625 -8.269531 12.941406 -8.484375 12.328125 -8.484375 L 10.953125 -8.484375 L 10.953125 0 L 1.765625 0 L 1.765625 -25.453125 L 15.65625 -25.453125 C 19.03125 -25.453125 21.625 -24.722656 23.4375 -23.265625 C 25.25 -21.816406 26.15625 -19.726562 26.15625 -17 C 26.15625 -15.394531 25.710938 -13.984375 24.828125 -12.765625 C 23.941406 -11.554688 22.664062 -10.644531 21 -10.03125 L 21 -10 C 21.632812 -9.8125 22.109375 -9.503906 22.421875 -9.078125 C 22.742188 -8.660156 23.007812 -8.109375 23.21875 -7.421875 L 23.640625 -6.015625 C 23.765625 -5.679688 23.929688 -5.390625 24.140625 -5.140625 C 24.347656 -4.890625 24.628906 -4.765625 24.984375 -4.765625 C 25.222656 -4.765625 25.457031 -4.804688 25.6875 -4.890625 C 25.925781 -4.972656 26.128906 -5.0625 26.296875 -5.15625 L 27.390625 -1.171875 C 26.660156 -0.648438 25.765625 -0.238281 24.703125 0.0625 C 23.640625 0.375 22.519531 0.53125 21.34375 0.53125 Z M 10.953125 -14.140625 L 14.109375 -14.140625 C 16.015625 -14.140625 16.96875 -14.960938 16.96875 -16.609375 C 16.96875 -18.253906 16.015625 -19.078125 14.109375 -19.078125 L 10.953125 -19.078125 Z M 10.953125 -14.140625 "/></g></g></g><g fill="#fff5e1" fill-opacity="1"><g transform="translate(229.47355, 170.27688)"><g><path d="M 15.375 0.890625 C 12.445312 0.890625 9.898438 0.332031 7.734375 -0.78125 C 5.566406 -1.90625 3.882812 -3.488281 2.6875 -5.53125 C 1.488281 -7.570312 0.890625 -9.96875 0.890625 -12.71875 C 0.890625 -15.476562 1.488281 -17.875 2.6875 -19.90625 C 3.882812 -21.945312 5.566406 -23.523438 7.734375 -24.640625 C 9.898438 -25.765625 12.445312 -26.328125 15.375 -26.328125 C 18.289062 -26.328125 20.832031 -25.765625 23 -24.640625 C 25.175781 -23.523438 26.863281 -21.945312 28.0625 -19.90625 C 29.257812 -17.875 29.859375 -15.476562 29.859375 -12.71875 C 29.859375 -9.96875 29.257812 -7.570312 28.0625 -5.53125 C 26.863281 -3.488281 25.175781 -1.90625 23 -0.78125 C 20.832031 0.332031 18.289062 0.890625 15.375 0.890625 Z M 15.375 -6.890625 C 16.976562 -6.890625 18.257812 -7.421875 19.21875 -8.484375 C 20.1875 -9.546875 20.671875 -10.957031 20.671875 -12.71875 C 20.671875 -14.488281 20.1875 -15.90625 19.21875 -16.96875 C 18.257812 -18.03125 16.976562 -18.5625 15.375 -18.5625 C 13.769531 -18.5625 12.484375 -18.03125 11.515625 -16.96875 C 10.554688 -15.90625 10.078125 -14.488281 10.078125 -12.71875 C 10.078125 -10.957031 10.554688 -9.546875 11.515625 -8.484375 C 12.484375 -7.421875 13.769531 -6.890625 15.375 -6.890625 Z M 15.375 -6.890625 "/></g></g></g></svg>